<?xml version="1.0" encoding="UTF-8" standalone="no"?>
<svg
   id="svg"
   version="1.1"
   viewBox="0 0 22 22"
   sodipodi:docname="freeram.svg"
   inkscape:version="1.2.1 (9c6d41e410, 2022-07-14, custom)"
   xmlns:inkscape="http://www.inkscape.org/namespaces/inkscape"
   xmlns:sodipodi="http://sodipodi.sourceforge.net/DTD/sodipodi-0.dtd"
   xmlns="http://www.w3.org/2000/svg"
   xmlns:svg="http://www.w3.org/2000/svg">
  <sodipodi:namedview
     pagecolor="#ffffff"
     bordercolor="#666666"
     borderopacity="1"
     objecttolerance="10"
     gridtolerance="10"
     guidetolerance="10"
     inkscape:pageopacity="0"
     inkscape:pageshadow="2"
     inkscape:window-width="1494"
     inkscape:window-height="870"
     id="namedview40"
     showgrid="true"
     inkscape:zoom="29.950886"
     inkscape:cx="10.98465"
     inkscape:cy="13.371892"
     inkscape:window-x="1280"
     inkscape:window-y="30"
     inkscape:window-maximized="1"
     inkscape:current-layer="svg"
     inkscape:document-rotation="0"
     inkscape:pagecheckerboard="0"
     inkscape:snap-smooth-nodes="true"
     inkscape:showpageshadow="2"
     inkscape:deskcolor="#d1d1d1">
    <inkscape:grid
       type="xygrid"
       id="grid4298" />
  </sodipodi:namedview>
  <defs
     id="defs81">
    <style
       type="text/css"
       id="current-color-scheme">
      .ColorScheme-Text {
        color:#31363b;
      }
      .ColorScheme-Background {
        color:#eff0f1;
      }
      .ColorScheme-Highlight {
        color:#3daee9;
      }
      .ColorScheme-ViewText {
        color:#31363b;
      }
      .ColorScheme-ViewBackground {
        color:#fcfcfc;
      }
      .ColorScheme-ViewHover {
        color:#93cee9;
      }
      .ColorScheme-ViewFocus{
        color:#3daee9;
      }
      .ColorScheme-ButtonText {
        color:#31363b;
      }
      .ColorScheme-ButtonBackground {
        color:#eff0f1;
      }
      .ColorScheme-ButtonHover {
        color:#93cee9;
      }
      .ColorScheme-ButtonFocus{
        color:#3daee9;
      }
      </style>
  </defs>
  <rect
     id="rect3832"
     x="0"
     y="0"
     width="22"
     height="22"
     fill-opacity="0" />
  <path
     id="rect2020"
     style="fill:currentColor;fill-opacity:1;fill-rule:nonzero;stroke:none;stroke-width:0.0369954"
     class="ColorScheme-Text"
     d="M 3.2089844 3.5019531 C 2.1525034 3.5019531 1.3027344 4.351723 1.3027344 5.4082031 L 1.3027344 13.992188 C 1.3027334 15.048666 2.1525034 15.900391 3.2089844 15.900391 L 9.1972656 15.900391 L 9.1972656 17.898438 L 6.4863281 17.898438 C 6.2153624 17.898438 5.9980469 17.920268 5.9980469 18.197266 C 5.9980469 18.474265 6.2155124 18.48902 6.4863281 18.498047 L 9.4863281 18.498047 L 9.5097656 18.498047 L 12.476562 18.498047 L 12.519531 18.498047 L 15.509766 18.498047 C 15.780723 18.498047 15.998047 18.474266 15.998047 18.197266 C 15.998047 17.920266 15.780532 17.888071 15.509766 17.898438 L 12.798828 17.898438 L 12.798828 15.900391 L 18.791016 15.900391 C 19.847495 15.900391 20.697266 15.048666 20.697266 13.992188 L 20.697266 5.4082031 C 20.697266 4.351723 19.847495 3.5019531 18.791016 3.5019531 L 3.2089844 3.5019531 z M 3.2324219 4.0019531 L 18.767578 4.0019531 C 19.560939 4.0019531 20.199219 4.6402337 20.199219 5.4335938 L 20.199219 13.96875 C 20.199219 14.76211 19.560937 15.400391 18.767578 15.400391 L 3.2324219 15.400391 C 2.4390617 15.400391 1.8007813 14.76211 1.8007812 13.96875 L 1.8007812 5.4335938 C 1.8007812 4.6402336 2.4390632 4.0019531 3.2324219 4.0019531 z M 6.9511719 5.9746094 C 6.2838716 5.9746094 5.7402344 6.5182502 5.7402344 7.1855469 L 5.7402344 7.3242188 C 5.7402344 7.4527638 5.8238904 7.5628689 5.9316406 7.6328125 C 6.1811683 7.7953847 6.3457031 8.0750597 6.3457031 8.3945312 C 6.3457031 8.7140033 6.1811683 8.9936812 5.9316406 9.15625 C 5.8238904 9.2261899 5.7402344 9.3362979 5.7402344 9.4648438 L 5.7402344 10.814453 L 16.628906 10.814453 L 16.628906 9.4648438 C 16.628906 9.3362979 16.547199 9.2261939 16.439453 9.15625 C 16.189921 8.9936812 16.025391 8.7140033 16.025391 8.3945312 C 16.025391 8.0750597 16.189921 7.7953847 16.439453 7.6328125 C 16.547204 7.5628686 16.628906 7.4527638 16.628906 7.3242188 L 16.628906 7.1855469 C 16.628906 6.5182502 16.087222 5.9746094 15.419922 5.9746094 L 6.9511719 5.9746094 z M 8.765625 7.1855469 C 9.1002219 7.1855469 9.3710937 7.4564189 9.3710938 7.7910156 L 9.3710938 9 C 9.3710938 9.3345927 9.1002219 9.6054688 8.765625 9.6054688 C 8.4310318 9.6054688 8.1601563 9.3345927 8.1601562 9 L 8.1601562 7.7910156 C 8.1601562 7.4564189 8.4310318 7.1855469 8.765625 7.1855469 z M 11.185547 7.1855469 C 11.520144 7.1855469 11.791016 7.4564189 11.791016 7.7910156 L 11.791016 9 C 11.791016 9.3345927 11.520144 9.6054688 11.185547 9.6054688 C 10.850954 9.6054688 10.580078 9.3345927 10.580078 9 L 10.580078 7.7910156 C 10.580078 7.4564189 10.850954 7.1855469 11.185547 7.1855469 z M 13.605469 7.1855469 C 13.940065 7.1855469 14.208984 7.4564189 14.208984 7.7910156 L 14.208984 9 C 14.208984 9.3345927 13.940065 9.6054688 13.605469 9.6054688 C 13.270876 9.6054688 13 9.3345927 13 9 L 13 7.7910156 C 13 7.4564189 13.270876 7.1855469 13.605469 7.1855469 z M 5.7402344 11.419922 L 5.7402344 12.628906 C 5.7402344 12.9635 6.0111099 13.234375 6.3457031 13.234375 L 7.2539062 13.234375 L 7.2539062 12.628906 C 7.2539062 12.462555 7.3902889 12.326172 7.5566406 12.326172 C 7.7229923 12.326172 7.8574219 12.462555 7.8574219 12.628906 L 7.8574219 13.234375 L 9.6738281 13.234375 L 9.6738281 12.628906 C 9.6738281 12.462555 9.8082576 12.326172 9.9746094 12.326172 C 10.140961 12.326172 10.277344 12.462555 10.277344 12.628906 L 10.277344 13.234375 L 12.091797 13.234375 L 12.091797 12.628906 C 12.091797 12.462555 12.228178 12.326172 12.394531 12.326172 C 12.560883 12.326172 12.697266 12.462555 12.697266 12.628906 L 12.697266 13.234375 L 14.511719 13.234375 L 14.511719 12.628906 C 14.511719 12.462555 14.648101 12.326172 14.814453 12.326172 C 14.980805 12.326172 15.117188 12.462555 15.117188 12.628906 L 15.117188 13.234375 L 16.025391 13.234375 C 16.359983 13.234375 16.628906 12.9635 16.628906 12.628906 L 16.628906 11.419922 L 5.7402344 11.419922 z M 9.7988281 15.900391 L 12.197266 15.900391 L 12.197266 17.898438 L 9.7988281 17.898438 L 9.7988281 15.900391 z " />
</svg>
